<svg xmlns="http://www.w3.org/2000/svg" xmlns:xlink="http://www.w3.org/1999/xlink" width="928.264" height="635" viewBox="0 0 928.264 635">
  <defs>
    <radialGradient id="radial-gradient" cx="0.5" cy="0.5" r="0.548" gradientTransform="matrix(-0.611, -0.281, 0.114, -0.611, 0.749, 0.946)" gradientUnits="objectBoundingBox">
      <stop offset="0"/>
      <stop offset="1" stop-color="#969a86"/>
    </radialGradient>
    <linearGradient id="linear-gradient" x1="0.5" x2="0.5" y2="1" gradientUnits="objectBoundingBox">
      <stop offset="0" stop-color="#fff"/>
      <stop offset="1"/>
    </linearGradient>
  </defs>
  <g id="HomeBackGround" transform="translate(17.263 -277.462)">
    <g id="Group_6" data-name="Group 6" transform="translate(667 147)">
      <g id="laptop" transform="translate(-799.044 176.972)">
        <rect id="Rectangle_45" data-name="Rectangle 45" width="708.267" height="439.871" rx="23.26" transform="translate(206.485 59.7)" fill="#535461"/>
        <rect id="Rectangle_46" data-name="Rectangle 46" width="676.952" height="359.351" transform="translate(221.398 123.819)" fill="#fff"/>
        <circle id="Ellipse_6" data-name="Ellipse 6" cx="5.968" cy="5.968" r="5.968" transform="translate(553.913 86.536)" fill="#fff"/>
        <path id="Path_108" data-name="Path 108" d="M787.394,551.08l-23.255,23.858H600.175L579.16,551.08H245.237a7.457,7.457,0,0,0-7.457,7.457v6.008a41.708,41.708,0,0,0,41.709,41.708h805.283a41.709,41.709,0,0,0,41.708-41.709v-6.008a7.457,7.457,0,0,0-7.457-7.457Z" transform="translate(-123 -67.173)" fill="#535461"/>
        <path id="Path_111" data-name="Path 111" d="M52.183,177.89h0Z" transform="translate(710.475 262.028)" fill="#6c63ff"/>
      </g>
      <g id="Graph" transform="translate(-566 343.992)">
        <path id="Path_96" data-name="Path 96" d="M0,0H61.639V22.955H0Z" transform="translate(0.28 188.893)" fill="#5946a5" stroke="#707070" stroke-width="1"/>
        <rect id="Rectangle_29" data-name="Rectangle 29" width="61.639" height="22.955" transform="translate(471.208 198.769)" fill="#5946a5" stroke="#707070" stroke-width="1"/>
        <rect id="Rectangle_30" data-name="Rectangle 30" width="61.639" height="22.955" transform="translate(589.677 163.474)" fill="#5946a5" stroke="#707070" stroke-width="1"/>
        <rect id="Rectangle_31" data-name="Rectangle 31" width="61.639" height="22.955" transform="translate(585.536 95.627)" fill="#5946a5" stroke="#707070" stroke-width="1"/>
        <rect id="Rectangle_32" data-name="Rectangle 32" width="61.639" height="22.955" transform="translate(405.073 38.07)" fill="#5946a5" stroke="#707070" stroke-width="1"/>
        <rect id="Rectangle_33" data-name="Rectangle 33" width="61.639" height="22.955" transform="translate(389.333 131.679)" fill="#5946a5" stroke="#707070" stroke-width="1"/>
        <rect id="Rectangle_34" data-name="Rectangle 34" width="61.639" height="22.955" transform="translate(482.429 128.79)" fill="#5946a5" stroke="#707070" stroke-width="1"/>
        <path id="Path_29" data-name="Path 29" d="M810.939,14.856,770.13,53.578l45.06,32.414" transform="translate(-225.84 89.006)" fill="none" stroke="#3f3d56" stroke-miterlimit="10" stroke-width="1"/>
        <line id="Line_1" data-name="Line 1" x1="100.696" y1="16.02" transform="translate(335.552 22.728)" fill="none" stroke="#3f3d56" stroke-miterlimit="10" stroke-width="1"/>
        <path id="Path_30" data-name="Path 30" d="M585.4,229.1l19.554-71.4L678.5,226.993" transform="translate(-165.249 -97.44)" fill="none" stroke="#3f3d56" stroke-miterlimit="10" stroke-width="1"/>
        <rect id="Rectangle_35" data-name="Rectangle 35" width="61.639" height="22.955" transform="translate(83.68 131.638)" fill="#5946a5" stroke="#707070" stroke-width="1"/>
        <rect id="Rectangle_36" data-name="Rectangle 36" width="61.639" height="22.955" transform="translate(190.707 38.367)" fill="#5946a5" stroke="#707070" stroke-width="1"/>
        <rect id="Rectangle_37" data-name="Rectangle 37" width="61.639" height="22.955" transform="translate(200.297 131.481)" fill="#5946a5" stroke="#707070" stroke-width="1"/>
        <rect id="Rectangle_38" data-name="Rectangle 38" width="61.639" height="22.955" transform="translate(0 80.79)" fill="#5946a5" stroke="#707070" stroke-width="1"/>
        <rect id="Rectangle_40" data-name="Rectangle 40" width="61.639" height="22.955" transform="translate(142.961 198.972)" fill="#5946a5" stroke="#707070" stroke-width="1"/>
        <path id="Path_31" data-name="Path 31" d="M196.467,28.555l21.866,51.921-21.866,55.058" transform="translate(-134.803 63.635)" fill="none" stroke="#3f3d56" stroke-miterlimit="10" stroke-width="1"/>
        <line id="Line_2" data-name="Line 2" x1="59.726" y2="47.293" transform="translate(173.472 151.739)" fill="none" stroke="#3f3d56" stroke-miterlimit="10" stroke-width="1"/>
        <path id="Path_32" data-name="Path 32" d="M49.235,260.1l-14.79-71.4L-67.169,260.1" transform="translate(185.561 -128.44)" fill="none" stroke="#3f3d56" stroke-miterlimit="10" stroke-width="1"/>
        <line id="Line_3" data-name="Line 3" x2="81.727" y2="45.471" transform="translate(420.228 154.701)" fill="none" stroke="#3f3d56" stroke-miterlimit="10" stroke-width="1"/>
        <rect id="Rectangle_41" data-name="Rectangle 41" width="72.471" height="22.885" transform="translate(298.935)" fill="#5946a5" stroke="#707070" stroke-width="1"/>
        <line id="Line_4" data-name="Line 4" x1="34.328" y2="44.245" transform="translate(385.9 154.701)" fill="none" stroke="#3f3d56" stroke-miterlimit="10" stroke-width="1"/>
        <line id="Line_5" data-name="Line 5" x1="114.427" y2="16.02" transform="translate(221.124 22.728)" fill="none" stroke="#3f3d56" stroke-miterlimit="10" stroke-width="1"/>
        <rect id="Rectangle_44" data-name="Rectangle 44" width="61.639" height="22.955" transform="translate(355.255 198.769)" fill="#5946a5" stroke="#707070" stroke-width="1"/>
      </g>
    </g>
    <g id="Dev" transform="translate(341.103 327.443)">
      <path id="Path_37" data-name="Path 37" d="M700.41,760.39c-2.11-4.8-4.11-10.32-2-15.12a12.85,12.85,0,0,1,6.65-6.25,32,32,0,0,1,9-2.22,125.6,125.6,0,0,1,29.26-.4c.71,5.62-.79,11.32-2.08,16.75-1.17,5-1.84,5.74-7,6C730.9,759.33,701.2,762.16,700.41,760.39Z" transform="translate(-597.13 -292.047)" fill="#fbbebe" stroke="#707070" stroke-width="1"/>
      <ellipse id="Ellipse_3" data-name="Ellipse 3" cx="143" cy="40" rx="143" ry="40" transform="translate(49.331 355.963)" fill="#464353" stroke="#707070" stroke-width="1"/>
      <ellipse id="Ellipse_4" data-name="Ellipse 4" cx="143" cy="40" rx="143" ry="40" transform="translate(49.331 355.963)" stroke="#707070" stroke-width="1" opacity="0.1"/>
      <path id="Path_38" data-name="Path 38" d="M848,506.4c-5.827,2.124-40.661-.168-46.861,0-6.79.31-37.818,12.438-44.2,10.118-8.56-3.1-40.465-7.979-45.8-15.369s-20.773-34.7-23.963-43.207c-1.68-4.43,30.243-9.563,31.033-14.243,5.15-1.17,10.79-2.89,13.45-7.46,2.27-3.92,1.64-8.62.33-13.1-.37-1.27-.8-2.53-1.23-3.74-1-2.9-4.45-8.41-2.05-10.89,1.53-1.57,7.94-2.37,10.15-3.39,6.81-3.14,13.09-7.68,20.57-9.17,6.47-1.29,13.15-.08,19.61,1.26a6.451,6.451,0,0,1,2.42.87,5.82,5.82,0,0,1,1.8,2.7c1.84,4.48,2.92,9.43,4.4,14.1,1.54,4.89,3.52,9.48,7.23,12.95,2.89,2.71,6.57,4.41,10.17,6.06l30.154,5.415c1.576.59,11.6,25.43,12.78,26.625,1.159,1.593,5.709,17.739,5.857,19.7C855.45,496.156,857.9,502.428,848,506.4Z" transform="translate(-558.13 -283.047)" fill="#fbbebe" stroke="#707070" stroke-width="1"/>
      <ellipse id="Ellipse_5" data-name="Ellipse 5" cx="46" cy="46" rx="46" ry="46" transform="translate(146.331 50.963)" fill="#fbbebe" stroke="#707070" stroke-width="1"/>
      <path id="Path_86" data-name="Path 86" d="M365.574,569.934a14.935,14.935,0,0,0-4.1,8.823c-.8,6.741,2.283,16.64,15.754,17.995,23.843,2.4,111.391,2.416,111.391,2.416V567.754l-39.64,5.255-37.21-22.138s1.685-15.417-10.278-11.184S365.574,569.934,365.574,569.934Z" transform="translate(-361.36 -237.913)" fill="#f7c4a7" stroke="#707070" stroke-width="1"/>
      <path id="Path_41" data-name="Path 41" d="M906.18,650.86c3.33-1.27,7-.81,10.57-.33,11.49,1.57,23.15,3.18,33.8,7.77,5,2.14,9.76,5,13.14,9.21,3,3.79,4.75,8.43,6.41,13L973.94,691c1.46,4,2.94,8.08,3.35,12.33,1.2,12.59-7.41,24.46-18.24,31s-23.58,8.87-36,11.31-24.89,5.14-37.26,8a149.989,149.989,0,0,1-17.53,3.45c-13.24,1.5-27.08-.71-39.66,3.67-5,1.75-9.91,4.35-15.1,5.56A93.938,93.938,0,0,1,803.07,768l-23.81,2.72a129.889,129.889,0,0,1-14.6,1.12c-10.4,0-20.63-2.46-30.73-4.92a7.772,7.772,0,0,1-3-1.21c-1.6-1.26-1.95-3.49-2.18-5.51q-1.53-13.41-2.68-26.85c-.24-2.91-.42-6.06,1.17-8.51,2-3,5.9-3.94,9.46-4.52a246.891,246.891,0,0,1,45.68-3.17c5.81-5.81,15.39-5.84,23-9a68.4,68.4,0,0,0,8.11-4.41A106,106,0,0,1,858,689.67a41.446,41.446,0,0,0,9.11-1.3c5.89-1.83,11.26-6.81,17.31-5.59.75-2.07,1.27-4.84,3-6.26.86-.73,1.92-1.22,2.71-2,1.67-1.69,1.82-4.35,1.57-6.71s-.81-4.78-.2-7.08a9.793,9.793,0,0,1,1.11-2.47C895.62,653,900.15,650.36,906.18,650.86Z" transform="translate(-597.13 -292.047)" fill="#464353" stroke="#707070" stroke-width="1"/>
      <path id="Path_85" data-name="Path 85" d="M524.95,324.767l-69.159,6.9s-25.827,1.112-42.456,36.969S355.677,506.656,362.06,502.3c11.425-7.805,37.174-27.813,53.565-19.851,0,0,6.792-19.381,17.2-30.351,1.881-1.984,11.88-4.748,13.407-5.547,8.979-4.7,5.309,17.112,5.309,17.112l-5.309,72.069H632.664v-34.01s38.915,21.81,36.09,34.01c0,0,33.3-89.662,26.108-130.407a289.127,289.127,0,0,1-3.976-38.123h0c-.871-21.582-7.927-38.61-27.678-44.989-3.006-.965-20.877-1.633-22.755-1.647-6.389-.061-6.484.27-12.356,0-11.9-.548-24.921-6.873-24.921-6.873s-9.14,12.988-9,24.921c.174,15.34-27.69,25.614-27.69,25.614s-31.815-8.948-33.228-15.23S522.459,332.16,524.95,324.767Z" transform="translate(-360.367 -166.178)" fill="#721d1d" stroke="#707070" stroke-width="1"/>
      <path id="Path_42" data-name="Path 42" d="M906.18,650.86c3.33-1.27,7-.81,10.57-.33,11.49,1.57,23.15,3.18,33.8,7.77,5,2.14,9.76,5,13.14,9.21,3,3.79,4.75,8.43,6.41,13L973.94,691c1.46,4,2.94,8.08,3.35,12.33,1.2,12.59-7.41,24.46-18.24,31s-23.58,8.87-36,11.31-24.89,5.14-37.26,8a149.989,149.989,0,0,1-17.53,3.45c-13.24,1.5-27.08-.71-39.66,3.67-5,1.75-9.91,4.35-15.1,5.56A93.938,93.938,0,0,1,803.07,768l-23.81,2.72a129.889,129.889,0,0,1-14.6,1.12c-10.4,0-20.63-2.46-30.73-4.92a7.772,7.772,0,0,1-3-1.21c-1.6-1.26-1.95-3.49-2.18-5.51q-1.53-13.41-2.68-26.85c-.24-2.91-.42-6.06,1.17-8.51,2-3,5.9-3.94,9.46-4.52a246.891,246.891,0,0,1,45.68-3.17c5.81-5.81,15.39-5.84,23-9a68.4,68.4,0,0,0,8.11-4.41A106,106,0,0,1,858,689.67a41.446,41.446,0,0,0,9.11-1.3c5.89-1.83,11.26-6.81,17.31-5.59.75-2.07,1.27-4.84,3-6.26.86-.73,1.92-1.22,2.71-2,1.67-1.69,1.82-4.35,1.57-6.71s-.81-4.78-.2-7.08a9.793,9.793,0,0,1,1.11-2.47C895.62,653,900.15,650.36,906.18,650.86Z" transform="translate(-597.13 -292.047)" stroke="#707070" stroke-width="1" opacity="0.05"/>
      <path id="Path_43" data-name="Path 43" d="M709.61,766.57c-6.19,7.17-11.64,9.73-21.33,9.5q-8.94-.21-17.86-.93a100.2,100.2,0,0,0-12.24-.57c-12.34.48-24.25,6.13-36.56,5.14a25.918,25.918,0,0,1-5.37-1A15.63,15.63,0,0,1,609,774.3c-2.36-2.67-3.49-6.21-4.14-9.71-3.29-17.94,5.73-37.48,21.52-46.61a15.78,15.78,0,0,1,6.84-2.43,16.21,16.21,0,0,1,6.92,1.52l.15.06a52.332,52.332,0,0,1,17.14,11.44,9.66,9.66,0,0,0,2.62,2.11,9,9,0,0,0,3.09.58l13.14.83a31.139,31.139,0,0,1,6.6.91,52.458,52.458,0,0,1,6.94,3c7.07,3.16,14.91,4,22.55,5.22a3.37,3.37,0,0,1,2,.8,3.129,3.129,0,0,1,.62,1.3,25.51,25.51,0,0,1-5.38,23.25Z" transform="translate(-597.13 -292.047)" fill="#3f3d56" stroke="#707070" stroke-width="1"/>
      <path id="Path_44" data-name="Path 44" d="M640.25,717.13a78.9,78.9,0,0,0-13.15,16.44,82.278,82.278,0,0,0-10.74,32.54,60.394,60.394,0,0,0-.11,12.61A15.63,15.63,0,0,1,609,774.3c-2.36-2.67-3.49-6.21-4.14-9.71-3.29-17.94,5.73-37.48,21.52-46.61a15.78,15.78,0,0,1,6.84-2.43,16.21,16.21,0,0,1,6.92,1.52Z" transform="translate(-597.13 -292.047)" stroke="#707070" stroke-width="1" opacity="0.1"/>
      <path id="Path_45" data-name="Path 45" d="M894.74,742c7.35-.2,15.6-.57,21,4.38,5.15,4.68,5.83,12.4,6.17,19.35l.39,8.07c.12,2.46.22,5-.77,7.28-1.76,4-6.59,5.93-11,5.7s-8.46-2.16-12.49-3.9a175.692,175.692,0,0,0-34-10.71q.57-8.37,1.9-16.66c.61-3.83.71-10.24,3.27-13.42,2.71-3.36,6.24-1.54,9.92-.92a79.634,79.634,0,0,0,15.61.83Z" transform="translate(-597.13 -292.047)" fill="#fbbebe" stroke="#707070" stroke-width="1"/>
      <path id="Path_46" data-name="Path 46" d="M700.52,660.92c0,1-1.57,0-1.71-1.07-1.1-8.09-7.52-14.76-15-18s-16-3.41-24.1-2.64c-12.25,1.16-25.95,5.85-30.48,17.3-1.06,2.68-1.54,5.58-2.84,8.15-1.44,2.82-3.79,5.07-5.35,7.81-2.69,4.74-2.8,10.55-1.83,15.91,2.61,14.3,12.39,26.53,24.24,35s25.7,13.53,39.51,18.09a685.192,685.192,0,0,0,112,26.75c6.16.93,12.38,1.79,18.28,3.77,5.28,1.77,10.22,4.42,15.38,6.5,12,4.82,24.91,6.54,37.7,8.23,2.18.28,4.68.48,6.29-1,2.08-1.93,1.39-5.29.8-8.06a43.35,43.35,0,0,1,5.09-30.74c2.14-3.6,4.92-7.29,4.52-11.46-.48-4.86-5.32-8.3-10.14-9.08s-9.72.37-14.56,1a7.989,7.989,0,0,1-5-.49,9.888,9.888,0,0,1-1.94-1.72,21.93,21.93,0,0,0-25.54-3.57c-1.79,1-4.5-1.23-6.36-2.07L798.47,710c-24.16-10.93-48.44-21.91-74-28.83a15.542,15.542,0,0,1-5.7-2.37c-1.27-1-2.18-2.36-3.35-3.47-2.55-2.41-6.1-3.37-9.16-5.08S699.8,664.35,700.52,660.92Z" transform="translate(-597.13 -292.047)" fill="#464353" stroke="#707070" stroke-width="1"/>
      <path id="Path_47" data-name="Path 47" d="M1024.71,791.61c-3.36,6.23-9.88,10.11-16.88,11.71a33.494,33.494,0,0,1-5.34.76c-8.85.55-17.59-1.9-26.12-4.32l-11.58-3.28a36.554,36.554,0,0,0-6.1-1.36,41.855,41.855,0,0,0-8.44.29,149.594,149.594,0,0,1-41-1.84,7.228,7.228,0,0,1-3.17-1.13,15.751,15.751,0,0,1-2.21-2.71c-3.15-3.79-6.54-6-2.81-11,2.15-2.9,6.14-4.35,7.81-7.68s.6-8.06-.39-11.5c-1.35-4.75-5.79-6.8-7.38-11.16-1.19-3.29.81-7.11,3.82-8.9s6.73-1.93,10.2-1.47,6.87,1.44,10.36,1.71c10.26.82,20.75-4.47,30.6-1.49,2.17.66,4.22,1.71,6.42,2.29a21.351,21.351,0,0,0,12.83-1.11c1.44-.54,2.85-1.19,4.25-1.83a34.226,34.226,0,0,1,8.55-3.09c9.61-1.65,18.52,5,25.77,11.49a36.436,36.436,0,0,1,6.55,7.1,35.646,35.646,0,0,1,4,10.33C1027.1,772.69,1029.29,783.11,1024.71,791.61Z" transform="translate(-597.129 -292.047)" fill="#3f3d56" stroke="#707070" stroke-width="1"/>
      <path id="Path_48" data-name="Path 48" d="M1024.71,791.61c-3.36,6.23-9.88,10.11-16.88,11.71a32.689,32.689,0,0,0,3.55-17.16c-.6-9.51-4.78-18.47-10.11-26.37a93.4,93.4,0,0,0-11.14-13.57c-3.18-3.2-7.09-5.74-10.51-8.67a34.235,34.235,0,0,1,8.55-3.09c9.61-1.65,18.52,5,25.77,11.49a36.438,36.438,0,0,1,6.55,7.1,35.645,35.645,0,0,1,4,10.33C1027.1,772.69,1029.29,783.11,1024.71,791.61Z" transform="translate(-597.129 -292.047)" stroke="#707070" stroke-width="1" opacity="0.1"/>
      <path id="Path_49" data-name="Path 49" d="M733.6,299.9c-3.36,2.43-14.015,3.1-16.355,6.454-4.31,6.19-3.421,5.82-10.311,9.27-2.61,1.31-13.928,18.12-15.658,20.4a12.339,12.339,0,0,0-1.95,5.13,101.647,101.647,0,0,0-2.06,19.6c0,3.28.14,6.66,1.59,9.64,1.37,2.8,3.84,5.17,4.35,8.22.39,2.38-.49,4.75-.8,7.14s.23,5.22,2.44,6.36a14.791,14.791,0,0,0,3.7.87c6.65,1.48,8.88,9.28,9.89,15.73,2.26-.13,3.28-2.72,3.75-4.83l6.93-30.81c.75-3.34,3.486-7.06,6.816-8.23,2.23-.77,3.184-.2,5.514,0,9.15.75,16.89-6.32,25.84-8.27A33,33,0,0,1,766,356c7.06.35,15.27,3.25,16.77,9.84.25,1.07.4,2.35,1.4,2.88s2,.08,3.1,0c4.48-.45,7.12,4.59,8.41,8.71l4.7,15c.7,2.27,1.88,4.94,4.34,5.23,2.27.28,4.2-1.87,4.54-4s-.4-4.34-.89-6.48c-2.21-9.85,1.17-19.93,3.23-29.8s2.43-21.21-4.48-28.81c-2.51-2.75-5.81-4.8-8.15-7.7-2.18-2.72-3.41-6.06-5.67-8.73-6.25-7.37-22.28-13.06-32.11-14C750,296.91,742.683,293.306,733.6,299.9Z" transform="translate(-564.13 -296.047)" fill="#3f3d56" stroke="#707070" stroke-width="1"/>
      <g id="Earphone" transform="translate(147.726 99.613)">
        <path id="Path_94" data-name="Path 94" d="M0,0S-1.1,10.875,8.711,31.778,51,76,51,76" transform="translate(0.037 8.738)" fill="none" stroke="#707070" stroke-width="1"/>
        <path id="Path_93" data-name="Path 93" d="M39.669-.738s-4.9,32.762-12.458,42.282C22.17,47.7,14.151,53.6,6.77,65.346A45.176,45.176,0,0,0,0,84" transform="translate(51.037 0.738)" fill="none" stroke="#707070" stroke-width="1"/>
        <path id="Path_95" data-name="Path 95" d="M120.428,174.866s10.458-3.076,9.843-5.537S58.989,125.5,37.572,93.916C8.072,50.416,0,0,0,0" transform="translate(51.037 84.738)" fill="none" stroke="#707070" stroke-width="1"/>
      </g>
      <g id="Group_4" data-name="Group 4" transform="translate(121.15 45.463)" opacity="0.1">
        <path id="Path_50" data-name="Path 50" d="M804.76,390.65c-2.46-.3-3.64-3-4.34-5.23q-2.35-7.51-4.7-15c-1.29-4.13-3.93-9.17-8.41-8.71-1,.11-2.18.52-3.1,0s-1.15-1.81-1.4-2.88c-1.5-6.6-9.71-9.49-16.77-9.84a33.43,33.43,0,0,0-8.71.57c-9,2-16.69,9-25.84,8.27-2.36-.19-4.8-.91-7-.14-3.37,1.16-4.58,5-5.33,8.38l-6.93,30.8c-.47,2.12-1.49,4.71-3.75,4.83-1-6.44-3.24-14.24-9.89-15.72a15.722,15.722,0,0,1-3.7-.87c-.87-.475,16.87,20.88,17.34,18.77l6.93-30.81c.75-3.34,6.057-8.408,9.387-9.578,2.23-.77.613,1.148,2.943,1.348,9.15.75,16.89-6.32,25.84-8.27A33,33,0,0,1,766,356c7.06.35,15.27,3.25,16.77,9.84.25,1.07.4,2.35,1.4,2.88s2,.08,3.1,0c4.48-.45,7.12,4.59,8.41,8.71q2.34,7.51,4.7,15c.7,2.27,1.88,4.94,4.34,5.23,2.27.28,4.2-1.87,4.54-4a13.58,13.58,0,0,0-.6-5.31,4.13,4.13,0,0,1-3.9,2.3Z" transform="translate(-687.28 -342.51)" stroke="#707070" stroke-width="1"/>
        <path id="Path_51" data-name="Path 51" d="M693.22,371.61c-.51-3.05-3-5.42-4.35-8.22a16.451,16.451,0,0,1-1.48-6c0,1.12-.1,2.24-.11,3.37,0,3.28.14,6.66,1.59,9.64,1.11,2.27,2.94,4.27,3.86,6.58a15.061,15.061,0,0,0,.49-5.37Z" transform="translate(-687.28 -342.51)" stroke="#707070" stroke-width="1"/>
        <path id="Path_52" data-name="Path 52" d="M811.64,350.33c-1.82,8.72-4.66,17.6-3.78,26.34.57-6.45,2.45-12.94,3.78-19.34a51,51,0,0,0,1.16-14.82,61.151,61.151,0,0,1-1.16,7.82Z" transform="translate(-687.28 -342.51)" stroke="#707070" stroke-width="1"/>
      </g>
      <rect id="Rectangle_42" data-name="Rectangle 42" width="223" height="142" rx="7.97" transform="translate(95.831 227.463)" fill="#3f3d56" stroke="#707070" stroke-width="1"/>
      <rect id="Rectangle_43" data-name="Rectangle 43" width="223" height="142" rx="7.97" transform="translate(95.831 227.463)" stroke="#707070" stroke-width="1" opacity="0.2" fill="url(#radial-gradient)"/>
      <g id="Group_5" data-name="Group 5" transform="translate(184.556 282.368)">
        <path id="Path_89" data-name="Path 89" d="M917.785-710.607a2.508,2.508,0,0,0-1.875,1.861,2.578,2.578,0,0,0,.346,1.828c.078.115,2.674,2.713,5.771,5.767l5.625,5.555-5.664,5.6c-6.073,6.007-5.839,5.757-6.044,6.44a2.436,2.436,0,0,0,.9,2.563,2.2,2.2,0,0,0,1.344.457,2.18,2.18,0,0,0,1.451-.366c.14-.086,1.4-1.3,3.923-3.783.692-.681,1.766-1.74,3-2.96,7.159-7.085,6.774-6.676,6.959-7.378a2.315,2.315,0,0,0,0-1.125c-.175-.726.209-.317-7.008-7.431-3.643-3.593-6.735-6.608-6.872-6.695A2.586,2.586,0,0,0,917.785-710.607Z" transform="translate(-887.149 710.658)" fill="#fff" stroke="#707070" stroke-width="0.1"/>
        <path id="Path_90" data-name="Path 90" d="M931.667-710.608a2.509,2.509,0,0,1,1.875,1.861,2.578,2.578,0,0,1-.346,1.828c-.078.115-2.674,2.713-5.772,5.767L921.8-695.6l5.665,5.6c6.074,6.007,5.841,5.757,6.045,6.44a2.436,2.436,0,0,1-.9,2.563,2.2,2.2,0,0,1-1.344.457,2.181,2.181,0,0,1-1.452-.366c-.195-.12-2.567-2.434-6.922-6.743-7.161-7.085-6.776-6.676-6.961-7.378a2.317,2.317,0,0,1,0-1.125c.175-.726-.209-.317,7.01-7.431,3.644-3.593,6.737-6.608,6.873-6.695A2.587,2.587,0,0,1,931.667-710.608Z" transform="translate(-915.859 710.73)" fill="#fff" stroke="#707070" stroke-width="0.1"/>
      </g>
      <g id="glasses" transform="translate(160.051 91.9) rotate(-7)">
        <path id="Path_91" data-name="Path 91" d="M24.573,4.23c0,3.99-5.729,10-5.729,10H5.688S0,8.966,0,4.23C0-2.674,24.573.012,24.573,4.23Z" transform="translate(0 0)" stroke="#707070" stroke-width="1" fill="url(#linear-gradient)"/>
        <path id="Path_92" data-name="Path 92" d="M0,4.23c0,3.99,5.728,10,5.728,10H18.882s5.688-5.261,5.688-10C24.57-2.674,0,.012,0,4.23Z" transform="translate(36.573 0)" stroke="#707070" stroke-width="1" fill="url(#linear-gradient)"/>
        <line id="Line_6" data-name="Line 6" x2="13" transform="translate(24.073 4.23)" fill="none" stroke="#707070" stroke-width="1"/>
      </g>
    </g>
    <line id="Line_7" data-name="Line 7" y1="635" transform="translate(910.5 277.462)" fill="none" stroke="rgba(112,112,112,0)" stroke-width="1"/>
  </g>
</svg>
